<svg width="78" height="78" viewBox="0 0 78 78" fill="none" xmlns="http://www.w3.org/2000/svg">
<path d="M61.9779 51.5742L61.9816 51.8732C61.9875 56.0145 60.2314 60.0065 57.0615 63.0579L57.0725 63.0449C53.7704 66.2573 49.3047 68.3536 44.4428 68.9736L44.3287 68.9866V76.6576C44.3287 77.0136 44.1686 77.3551 43.8835 77.6068C43.5985 77.8586 43.2119 78 42.8088 78H42.7463H36.1002C35.683 77.9958 35.2842 77.8475 34.9892 77.5869C34.6941 77.3263 34.5263 76.9741 34.5215 76.6056V68.9866C32.3039 68.725 30.1249 68.252 28.0226 67.5759L28.2398 67.6377C25.0995 66.7099 22.1531 65.3329 19.5182 63.5617L19.5918 63.6105C18.787 63.0963 18.0143 62.544 17.2771 61.956L17.3028 61.9755C16.8931 61.6288 16.6061 61.3688 16.4417 61.1954C16.1757 60.9617 16.0186 60.6484 16.0015 60.3174C15.9845 59.9863 16.1088 59.6617 16.3497 59.4077L16.346 59.4109L21.4207 53.5342C21.5556 53.3808 21.7263 53.2549 21.9213 53.1651C22.1163 53.0754 22.3309 53.0239 22.5505 53.0141H22.5542C22.7724 52.9787 22.9974 52.9967 23.205 53.066C23.4125 53.1353 23.5947 53.2534 23.7318 53.4074L23.7355 53.4107L23.8311 53.4952C27.1584 56.1861 31.2306 58.054 35.6365 58.9104L35.8058 58.9396C36.9025 59.1606 38.161 59.2874 39.4527 59.2874L39.6809 59.2907C42.2237 59.2907 44.5789 58.5886 46.5183 57.3924L46.4778 57.4152C47.456 56.8311 48.2483 56.0353 48.7792 55.1038C49.31 54.1723 49.5617 53.1361 49.5101 52.0943V52.1073C49.5101 51.2524 49.2341 50.4561 48.7594 49.7832L48.7704 49.8027C48.3218 49.1316 47.768 48.5199 47.1255 47.9857L47.1218 47.9825C46.2664 47.3488 45.3258 46.8106 44.3213 46.38L44.2404 46.3475C42.9254 45.7538 41.8459 45.289 41.002 44.9531C40.158 44.6172 38.8443 44.1459 37.0607 43.5392C35.7801 43.0755 34.7693 42.7125 34.0284 42.4503C33.2875 42.1881 32.2767 41.8035 30.9961 41.2964C29.7154 40.7893 28.6887 40.3397 27.9159 39.9475C27.1431 39.5553 26.2145 39.0406 25.1302 38.4035C24.1802 37.8629 23.2917 37.2425 22.4769 36.5508L22.4806 36.5541C21.7411 35.8932 21.041 35.1988 20.383 34.4738L20.3351 34.4218C19.6383 33.6757 19.0601 32.8489 18.6166 31.9645L18.5871 31.8962C18.1597 30.9985 17.8211 30.0697 17.5751 29.1204L17.5494 29.0034C17.2678 27.9136 17.1271 26.7992 17.1299 25.6815V25.5059C17.1299 21.4429 18.9735 17.757 21.9654 15.0721L21.9617 15.0754C25.2965 12.0131 29.6544 9.97518 34.3964 9.26041L34.5289 9.24415V1.38142C34.5289 1.00113 34.7092 0.656582 34.9962 0.412802C35.1381 0.282267 35.3084 0.178411 35.4968 0.107472C35.6853 0.0365334 35.888 -2.27776e-05 36.0929 1.06477e-08H42.8162C43.6552 1.06477e-08 44.336 0.601325 44.336 1.34242V1.39767V9.05563C46.36 9.24415 48.2074 9.59845 49.9775 10.1055L49.7824 10.0568C51.4715 10.5118 52.892 11.0091 54.2573 11.5877L54.0659 11.5162C55.273 12.046 56.2997 12.5888 57.2712 13.1934L57.1976 13.1479C58.1789 13.759 58.8193 14.1794 59.1186 14.4091C59.4179 14.6387 59.6644 14.8414 59.8582 15.0169C60.123 15.2182 60.2942 15.4987 60.339 15.8047C60.3838 16.1106 60.2991 16.4204 60.1011 16.6746L60.1048 16.6713L56.1231 23.0291C56.0237 23.2246 55.8661 23.3925 55.6671 23.515C55.4682 23.6375 55.2353 23.71 54.9933 23.7247C54.7596 23.7676 54.5142 23.7624 54.2831 23.7094C54.0521 23.6564 53.838 23.5571 53.6575 23.4192H53.6611C53.563 23.3325 53.325 23.1591 52.9472 22.8991C52.5694 22.6391 51.9291 22.2544 51.0263 21.7452C50.1503 21.2493 49.2395 20.8031 48.2994 20.4093L48.1448 20.3508C47.0121 19.8907 45.8346 19.522 44.6268 19.2489L44.4722 19.2197C43.1004 18.888 41.6846 18.7196 40.2623 18.7191C37.537 18.6088 34.8399 19.2742 32.5748 20.6173L32.6226 20.5913C31.3698 21.3266 30.4374 22.4164 29.9786 23.6816C29.5199 24.9469 29.562 26.3124 30.0982 27.5537L30.0834 27.5147C30.422 28.2298 30.9151 28.8344 31.5334 29.3187L31.5407 29.3219C32.1332 29.8127 32.7661 30.284 33.4285 30.7228L33.4874 30.7586C34.2786 31.2397 35.1876 31.6915 36.1407 32.0685L36.2511 32.1075C37.4827 32.6146 38.4763 33.0068 39.2319 33.2842C39.9875 33.5615 41.1381 33.9602 42.6837 34.4803C44.4256 35.061 45.7565 35.5183 46.6765 35.852C47.5965 36.1857 48.8453 36.6938 50.4227 37.3764C51.7515 37.9276 53.032 38.5653 54.2536 39.2844L54.1469 39.2259C55.2877 39.941 56.2813 40.6561 57.2271 41.4199L57.205 41.4004C58.2243 42.187 59.0928 43.0971 59.7846 44.1145L59.8178 44.1665C60.4286 45.1189 60.9549 46.2273 61.3376 47.3877L61.3707 47.4982C61.7718 48.6846 62 50.0498 62 51.4604V51.5969V51.5904L61.9779 51.5742Z" fill="url(#paint0_linear_0_230)"/>
<defs>
<linearGradient id="paint0_linear_0_230" x1="26.0256" y1="16" x2="66.5293" y2="48.6553" gradientUnits="userSpaceOnUse">
<stop stop-color="#FF9362"/>
<stop offset="1" stop-color="#FC6F2F"/>
</linearGradient>
</defs>
</svg>
