<svg width="78" height="78" viewBox="0 0 78 78" fill="none" xmlns="http://www.w3.org/2000/svg">
<path d="M10 34.5C7.51472 34.5 5.5 36.5147 5.5 39C5.5 41.4853 7.51472 43.5 10 43.5L10 34.5ZM72.182 42.182C73.9393 40.4246 73.9393 37.5754 72.182 35.818L43.5442 7.18019C41.7868 5.42284 38.9375 5.42284 37.1802 7.18019C35.4228 8.93755 35.4228 11.7868 37.1802 13.5442L62.636 39L37.1802 64.4558C35.4228 66.2132 35.4228 69.0624 37.1802 70.8198C38.9375 72.5772 41.7868 72.5772 43.5442 70.8198L72.182 42.182ZM10 43.5L69 43.5V34.5L10 34.5L10 43.5Z" fill="url(#paint0_linear_0_226)"/>
<defs>
<linearGradient id="paint0_linear_0_226" x1="19.5" y1="22.5" x2="71.5" y2="41" gradientUnits="userSpaceOnUse">
<stop stop-color="#FF9362"/>
<stop offset="1" stop-color="#FC6F2F"/>
</linearGradient>
</defs>
</svg>
