<svg width="795" height="340" viewBox="0 0 795 340" fill="none" xmlns="http://www.w3.org/2000/svg">
<g filter="url(#filter0_d_0_195)">
<path d="M763.979 162.711C763.979 236.557 803.646 346.327 388.5 296.421C-26.6458 246.515 -0.957655 200.421 13.0213 162.711C27.0002 125 181.129 29 388.5 29C595.871 29 763.979 88.8643 763.979 162.711Z" fill="url(#paint0_linear_0_195)" fill-opacity="0.8" shape-rendering="crispEdges"/>
<path d="M762.979 162.711C762.979 168.526 763.225 174.587 763.475 180.752C763.623 184.386 763.772 188.055 763.873 191.732C764.146 201.686 764.072 211.771 762.7 221.637C759.96 241.329 752.052 260.141 731.332 275.164C710.559 290.225 676.81 301.551 622.228 305.971C567.66 310.39 492.373 307.901 388.62 295.428C284.849 282.954 208.647 270.72 152.935 258.8C97.209 246.877 62.0396 235.28 40.2961 224.103C18.5467 212.923 10.4167 202.263 8.3926 192.295C6.50048 182.977 9.85666 174.017 13.1685 165.176C13.4332 164.469 13.6975 163.763 13.9589 163.058C15.637 158.531 19.4667 153.023 25.3861 146.829C31.2915 140.649 39.2202 133.845 49.014 126.718C68.6004 112.465 95.5912 96.9643 128.637 82.6313C194.726 53.9659 284.966 30 388.5 30C492.102 30 585.853 44.9556 653.668 69.105C687.58 81.1812 714.953 95.5377 733.828 111.429C752.708 127.325 762.979 144.659 762.979 162.711Z" stroke="white" stroke-opacity="0.1" stroke-width="2" shape-rendering="crispEdges"/>
</g>
<defs>
<filter id="filter0_d_0_195" x="-23.1538" y="0" width="818.154" height="340" filterUnits="userSpaceOnUse" color-interpolation-filters="sRGB">
<feFlood flood-opacity="0" result="BackgroundImageFix"/>
<feColorMatrix in="SourceAlpha" type="matrix" values="0 0 0 0 0 0 0 0 0 0 0 0 0 0 0 0 0 0 127 0" result="hardAlpha"/>
<feOffset dy="1"/>
<feGaussianBlur stdDeviation="15"/>
<feComposite in2="hardAlpha" operator="out"/>
<feColorMatrix type="matrix" values="0 0 0 0 1 0 0 0 0 1 0 0 0 0 1 0 0 0 0.05 0"/>
<feBlend mode="normal" in2="BackgroundImageFix" result="effect1_dropShadow_0_195"/>
<feBlend mode="normal" in="SourceGraphic" in2="effect1_dropShadow_0_195" result="shape"/>
</filter>
<linearGradient id="paint0_linear_0_195" x1="948.463" y1="28.9989" x2="619.394" y2="-328.123" gradientUnits="userSpaceOnUse">
<stop stop-color="#000D3B"/>
<stop offset="1" stop-color="#2D4088"/>
</linearGradient>
</defs>
</svg>
