<svg width="35" height="35" viewBox="0 0 35 35" fill="none" xmlns="http://www.w3.org/2000/svg">
<g id="basil:gmail-solid">
<path id="Vector" fill-rule="evenodd" clip-rule="evenodd" d="M9.78827 5.78937C14.9191 5.33063 20.0807 5.33063 25.2116 5.78937L27.4254 5.9877C28.497 6.0834 29.5052 6.53761 30.2868 7.27695C31.0685 8.0163 31.5781 8.99759 31.7333 10.0623C32.4543 14.9944 32.4543 20.0052 31.7333 24.9373C31.5778 26.0017 31.0681 26.9827 30.2864 27.7217C29.5048 28.4608 28.4968 28.9148 27.4254 29.0104L25.2116 29.2087C20.0807 29.6675 14.9191 29.6675 9.78827 29.2087L7.57452 29.0104C6.50305 28.9148 5.49509 28.4608 4.71344 27.7217C3.93178 26.9827 3.42206 26.0017 3.2666 24.9373C2.54557 20.0052 2.54557 14.9944 3.2666 10.0623C3.42176 8.99759 3.93135 8.0163 4.71303 7.27695C5.49471 6.53761 6.50283 6.0834 7.57452 5.9877L9.78827 5.78937ZM8.53993 9.97479C8.37333 9.88494 8.18626 9.83987 7.99701 9.84398C7.80777 9.84809 7.62283 9.90124 7.46029 9.99824C7.29774 10.0952 7.16315 10.2328 7.06968 10.3974C6.9762 10.562 6.92705 10.748 6.92702 10.9373V24.7915C6.92702 25.0815 7.04225 25.3597 7.24737 25.5649C7.45249 25.77 7.73069 25.8852 8.02077 25.8852C8.31085 25.8852 8.58905 25.77 8.79416 25.5649C8.99928 25.3597 9.11452 25.0815 9.11452 24.7915V12.769L16.9808 17.004C17.3045 17.179 17.6953 17.179 18.0191 17.004L25.8853 12.769V24.7915C25.8853 25.0815 26.0006 25.3597 26.2057 25.5649C26.4108 25.77 26.689 25.8852 26.9791 25.8852C27.2692 25.8852 27.5474 25.77 27.7525 25.5649C27.9576 25.3597 28.0729 25.0815 28.0729 24.7915V10.9373C28.0728 10.748 28.0237 10.562 27.9302 10.3974C27.8367 10.2328 27.7021 10.0952 27.5396 9.99824C27.377 9.90124 27.1921 9.84809 27.0029 9.84398C26.8136 9.83987 26.6265 9.88494 26.4599 9.97479L17.4999 14.799L8.53993 9.97479Z" fill="white"/>
</g>
</svg>
