<svg width="47" height="49" viewBox="0 0 47 49" fill="none" xmlns="http://www.w3.org/2000/svg">
<path fill-rule="evenodd" clip-rule="evenodd" d="M0.479004 17.9133V31.0867C0.479004 37.2996 0.479004 40.4033 2.43442 42.3344C4.20838 44.0867 6.96817 44.2465 12.1736 44.2627C12.1594 44.168 12.1458 44.0732 12.133 43.9783C11.8215 41.6925 11.8215 38.7892 11.8215 35.1844V35.0408C11.8215 33.9494 12.718 33.0637 13.8257 33.0637C14.9307 33.0637 15.8271 33.9494 15.8271 35.0408C15.8271 38.8217 15.8298 41.4596 16.1007 43.4502C16.3661 45.384 16.8455 46.4104 17.5848 47.139C18.3242 47.8702 19.3615 48.3442 21.3196 48.6015C23.3346 48.8723 26.0078 48.875 29.84 48.875H32.5078C36.34 48.875 39.0105 48.8696 41.0282 48.6042C42.9863 48.3442 44.0236 47.8675 44.7603 47.139C45.4996 46.4077 45.9817 45.384 46.2444 43.4502C46.5153 41.4623 46.5207 38.8217 46.5207 35.0408V13.9592C46.5207 10.1756 46.5153 7.54042 46.2444 5.54708C45.9817 3.61604 45.4996 2.58958 44.763 1.86375C44.0236 1.1325 42.9863 0.655833 41.0255 0.395833C39.0105 0.130416 36.34 0.125 32.5078 0.125H29.84C26.0078 0.125 23.3346 0.130416 21.3196 0.395833C19.3615 0.655833 18.3242 1.1325 17.5848 1.86104C16.8455 2.59229 16.3661 3.61604 16.1007 5.54979C15.8298 7.53771 15.8271 10.1756 15.8271 13.9592C15.8271 15.0506 14.9307 15.9363 13.823 15.9363C13.5617 15.938 13.3026 15.8883 13.0606 15.7899C12.8185 15.6914 12.5982 15.5463 12.4124 15.3626C12.2265 15.179 12.0786 14.9605 11.9772 14.7197C11.8758 14.4789 11.8229 14.2205 11.8215 13.9592V13.8156C11.8215 10.2135 11.8215 7.3075 12.133 5.02167L12.1736 4.73729C6.96817 4.75354 4.21109 4.91333 2.43442 6.66562C0.479004 8.59667 0.479004 11.7031 0.479004 17.9133ZM27.2509 32.4842L33.9242 25.8975C34.1099 25.7152 34.2575 25.4977 34.3582 25.2578C34.4589 25.0178 34.5108 24.7602 34.5108 24.5C34.5108 24.2398 34.4589 23.9822 34.3582 23.7422C34.2575 23.5023 34.1099 23.2848 33.9242 23.1025L27.2509 16.5158C26.8731 16.1451 26.365 15.9375 25.8358 15.9375C25.3065 15.9375 24.7984 16.1451 24.4207 16.5158C24.2349 16.6981 24.0874 16.9156 23.9867 17.1555C23.886 17.3955 23.8341 17.6531 23.8341 17.9133C23.8341 18.1736 23.886 18.4312 23.9867 18.6711C24.0874 18.9111 24.2349 19.1286 24.4207 19.3108L27.6761 22.5229H8.48755C8.22603 22.5208 7.96667 22.5703 7.72431 22.6685C7.48195 22.7668 7.26137 22.9119 7.07519 23.0956C6.88901 23.2792 6.74091 23.4978 6.63935 23.7388C6.5378 23.9798 6.4848 24.2385 6.48338 24.5C6.48338 25.5915 7.37984 26.4771 8.48755 26.4771H27.6761L24.4207 29.6892C24.2349 29.8714 24.0874 30.0889 23.9867 30.3289C23.886 30.5688 23.8341 30.8264 23.8341 31.0867C23.8341 31.3469 23.886 31.6045 23.9867 31.8445C24.0874 32.0844 24.2349 32.3019 24.4207 32.4842C24.7984 32.8549 25.3065 33.0625 25.8358 33.0625C26.365 33.0625 26.8731 32.8549 27.2509 32.4842Z" fill="url(#paint0_linear_0_330)"/>
<defs>
<linearGradient id="paint0_linear_0_330" x1="1.29912" y1="53.8094" x2="45.1432" y2="50.5004" gradientUnits="userSpaceOnUse">
<stop stop-color="#274FDA"/>
<stop offset="1" stop-color="#0B31BA"/>
</linearGradient>
</defs>
</svg>
