<svg width="35" height="35" viewBox="0 0 35 35" fill="none" xmlns="http://www.w3.org/2000/svg">
<g id="mdi:twitter">
<path id="Vector" d="M32.7542 8.75016C31.6313 9.26058 30.4208 9.596 29.1667 9.75641C30.45 8.9835 31.4417 7.7585 31.9083 6.28558C30.6979 7.01475 29.3563 7.52516 27.9417 7.81683C26.7896 6.56266 25.1708 5.8335 23.3333 5.8335C19.9063 5.8335 17.1063 8.6335 17.1063 12.0897C17.1063 12.5856 17.1646 13.0668 17.2667 13.5189C12.075 13.2564 7.4521 10.7627 4.37502 6.98558C3.83543 7.90433 3.52918 8.9835 3.52918 10.121C3.52918 12.2939 4.62293 14.2189 6.3146 15.3127C5.27918 15.3127 4.31668 15.021 3.47085 14.5835V14.6272C3.47085 17.6606 5.62918 20.1981 8.48752 20.7668C7.56983 21.018 6.6064 21.0529 5.67293 20.8689C6.06903 22.1121 6.84476 23.1999 7.89108 23.9794C8.93741 24.7589 10.2017 25.191 11.5063 25.2147C9.29489 26.9654 6.55376 27.9117 3.73335 27.8981C3.23752 27.8981 2.74168 27.8689 2.24585 27.8106C5.01668 29.5897 8.31252 30.6252 11.8417 30.6252C23.3333 30.6252 29.6479 21.0877 29.6479 12.8189C29.6479 12.5418 29.6479 12.2793 29.6333 12.0022C30.8583 11.1272 31.9083 10.0189 32.7542 8.75016Z" fill="white"/>
</g>
</svg>
