<svg width="35" height="35" viewBox="0 0 35 35" fill="none" xmlns="http://www.w3.org/2000/svg">
<g id="fa:youtube">
<path id="Vector" d="M21.7463 23.8259V27.3583C21.7463 28.106 21.4744 28.4799 20.9305 28.4799C20.6098 28.4799 20.296 28.3571 19.9892 28.1116V23.0725C20.296 22.827 20.6098 22.7042 20.9305 22.7042C21.4744 22.7042 21.7463 23.0781 21.7463 23.8259ZM28.8165 23.8426V24.6127H26.9339V23.8426C26.9339 23.0837 27.2476 22.7042 27.8752 22.7042C28.5027 22.7042 28.8165 23.0837 28.8165 23.8426ZM8.60999 20.1931H10.8482V18.6194H4.32186V20.1931H6.51822V29.7188H8.60999V20.1931ZM14.6343 29.7188H16.496V21.4487H14.6343V27.7768C14.2159 28.2455 13.8185 28.4799 13.442 28.4799C13.191 28.4799 13.0445 28.3627 13.0027 28.1283C12.9888 28.0949 12.9818 27.8996 12.9818 27.5424V21.4487H11.1201V27.9944C11.1201 28.5413 11.1759 28.9487 11.2874 29.2165C11.4548 29.6295 11.8592 29.8359 12.5007 29.8359C13.17 29.8359 13.8812 29.4955 14.6343 28.8147V29.7188ZM23.608 27.2411V23.9431C23.608 23.1283 23.5452 22.5759 23.4197 22.2857C23.1826 21.6607 22.6876 21.3482 21.9345 21.3482C21.2373 21.3482 20.5888 21.6496 19.9892 22.2522V18.6194H18.1275V29.7188H19.9892V28.9152C20.6167 29.529 21.2652 29.8359 21.9345 29.8359C22.6876 29.8359 23.1826 29.529 23.4197 28.9152C23.5452 28.6138 23.608 28.0558 23.608 27.2411ZM30.6781 27.0737V26.856H28.7746C28.7746 27.4252 28.7607 27.7656 28.7328 27.8772C28.6352 28.279 28.3563 28.4799 27.8961 28.4799C27.2546 28.4799 26.9339 28.0949 26.9339 27.3248V25.8683H30.6781V24.144C30.6781 23.2623 30.4899 22.615 30.1134 22.202C29.5695 21.6328 28.8304 21.3482 27.8961 21.3482C26.9478 21.3482 26.2018 21.6328 25.6579 22.202C25.2674 22.615 25.0722 23.2623 25.0722 24.144V27.0402C25.0722 27.9219 25.2744 28.5692 25.6788 28.9821C26.2227 29.5513 26.9757 29.8359 27.9379 29.8359C28.942 29.8359 29.695 29.5402 30.197 28.9487C30.448 28.6473 30.5945 28.346 30.6363 28.0446C30.6642 27.9442 30.6781 27.6205 30.6781 27.0737ZM17.9602 11.7891V8.27344C17.9602 7.50335 17.6604 7.1183 17.0607 7.1183C16.4611 7.1183 16.1613 7.50335 16.1613 8.27344V11.7891C16.1613 12.5703 16.4611 12.9609 17.0607 12.9609C17.6604 12.9609 17.9602 12.5703 17.9602 11.7891ZM33 24.3616C33 26.9732 32.8187 28.9263 32.4561 30.221C32.2609 30.8795 31.8565 31.4319 31.2429 31.8783C30.6293 32.3248 29.9181 32.5815 29.1093 32.6484C26.5434 32.8828 22.6736 33 17.5 33C12.3264 33 8.45659 32.8828 5.89069 32.6484C5.08187 32.5815 4.36718 32.3248 3.74663 31.8783C3.12607 31.4319 2.72515 30.8795 2.54386 30.221C2.18129 28.971 2 27.0179 2 24.3616C2 21.75 2.18129 19.7969 2.54386 18.5022C2.73909 17.8438 3.1435 17.2913 3.75708 16.8449C4.37067 16.3984 5.08884 16.1362 5.91161 16.058C8.46356 15.8348 12.3264 15.7232 17.5 15.7232C22.6736 15.7232 26.5434 15.8348 29.1093 16.058C29.9181 16.1362 30.6328 16.3984 31.2534 16.8449C31.8739 17.2913 32.2749 17.8438 32.4561 18.5022C32.8187 19.7522 33 21.7054 33 24.3616ZM12.1242 3H14.2578L11.7267 9.67969V14.2165H9.63495V9.67969C9.43972 8.85379 9.01439 7.67076 8.35897 6.13058C7.843 4.98103 7.38979 3.9375 6.99933 3H9.2166L10.7018 7.4029L12.1242 3ZM19.8637 8.57478V11.5045C19.8637 12.4085 19.6685 13.067 19.278 13.4799C18.7481 14.0491 18.009 14.3337 17.0607 14.3337C16.1264 14.3337 15.3943 14.0491 14.8644 13.4799C14.4739 13.0558 14.2787 12.3973 14.2787 11.5045V8.57478C14.2787 7.68192 14.4739 7.02902 14.8644 6.61607C15.3943 6.04688 16.1264 5.76228 17.0607 5.76228C18.009 5.76228 18.7481 6.04688 19.278 6.61607C19.6685 7.02902 19.8637 7.68192 19.8637 8.57478ZM26.8711 5.86272V14.2165H24.9676V13.2958C24.2285 13.9877 23.5103 14.3337 22.8131 14.3337C22.1716 14.3337 21.7602 14.1272 21.5789 13.7143C21.4674 13.4464 21.4116 13.0279 21.4116 12.4587V5.86272H23.3151V12.0067C23.3151 12.375 23.3221 12.5703 23.336 12.5926C23.3779 12.8382 23.5243 12.9609 23.7753 12.9609C24.1518 12.9609 24.5493 12.721 24.9676 12.2411V5.86272H26.8711Z" fill="white"/>
</g>
</svg>
